:SAMPLES-PER-SECOND 30
:FULLY-SPECIFIED
:DEGREES
368
root  -54.9857 35.0507 31.5762 -171.515 41.1413 179.408
RightUpLeg  -8.19048 -12.2808 0.260079
RightLeg  6.09376 -4.60493 -0.191976
RightFoot  2.57549 -0.0345985 -0.027832
RightToes  -19.6681 -0.0824341 -0.175723
Spine  -1.42648 0.431175 -0.097881
Spine1  -2.86817 0.963125 0.513136
HEad  -61.9064 15.8938 3.60658
LeftShoulder1  -1.94126e-019 -3.10601e-018 -2.51263e-017
LeftArm  4.59608 15.4445 -82.6968
LeftForeArm  32.0773 -32.989 -5.44454
LeftHand  -0.36576 -2.74612 5.44358
RightShoulder  -4.96962e-017 0 -2.36833e-017
RightArm  -5.77437 -19.88 73.5506
RightForeArm  54.6057 39.5588 5.91676
RightHand  -0.529108 1.82328 -8.68242
LeftUpLeg  -9.17466 -4.65252 2.06954
LeftLeg  1.3145 9.6357 -0.396649
LeftFoot  10.9434 -0.174444 2.01241
LeftToes  -22.7472 1.48321e-006 1.01846e-007
369
root  -54.9603 35.0318 31.5933 -171.329 40.5407 179.413
RightUpLeg  -8.5055 -12.8049 0.390933
RightLeg  6.49939 -4.67798 -0.228155
RightFoot  2.32756 -0.0347713 -0.0116244
RightToes  -19.6909 -0.0828454 -0.174332
Spine  -1.4003 0.319189 -0.0775167
Spine1  -2.82661 0.73464 0.548337
HEad  -60.9761 15.3612 3.83898
LeftShoulder1  -1.94126e-019 -3.10601e-018 -2.51263e-017
LeftArm  2.53047 16.1538 -82.5133
LeftForeArm  32.0126 -26.9659 -4.12603
LeftHand  -0.366882 -2.39538 5.67994
RightShoulder  -4.96962e-017 0 -2.36833e-017
RightArm  -8.29825 -20.8158 73.4968
RightForeArm  54.9919 35.6727 4.89861
RightHand  -0.535102 2.28232 -8.28687
LeftUpLeg  -9.55275 -5.16864 2.19185
LeftLeg  1.53677 9.61305 -0.358582
LeftFoot  10.8688 -0.171833 1.99237
LeftToes  -22.9439 1.48321e-006 1.01846e-007
370
root  -54.9086 35.0212 31.5942 -171.323 40.2353 179.4
RightUpLeg  -8.53516 -12.7811 0.444203
RightLeg  6.73176 -4.97343 -0.262758
RightFoot  2.13699 -0.0340739 -0.00733145
RightToes  -19.5355 -0.0835099 -0.173529
Spine  -1.40114 0.273264 -0.0483087
Spine1  -2.83531 0.631985 0.604525
HEad  -60.0323 15.1134 4.27014
LeftShoulder1  -1.94126e-019 -3.10601e-018 -2.51263e-017
LeftArm  -2.69819 17.0504 -82.4739
LeftForeArm  33.9622 -19.8821 -3.24985
LeftHand  -0.382674 -1.84577 6.32257
RightShoulder  -4.96962e-017 0 -2.36833e-017
RightArm  -10.997 -21.2209 73.4482
RightForeArm  55.0892 29.9159 3.57618
RightHand  -0.528928 2.03165 -8.45149
LeftUpLeg  -9.64556 -5.21379 2.2544
LeftLeg  1.71248 9.35762 -0.320566
LeftFoot  10.795 -0.166814 1.92693
LeftToes  -23.0345 1.48321e-006 1.01846e-007
371
root  -54.8749 35.0086 31.5888 -171.39 39.9428 179.31
RightUpLeg  -8.59226 -12.9918 0.415493
RightLeg  7.0348 -5.0544 -0.293807
RightFoot  1.89262 -0.0342818 0.0104259
RightToes  -19.3658 -0.0843962 -0.172843
Spine  -1.35443 0.209715 -0.0214181
Spine1  -2.7456 0.48562 0.666971
HEad  -59.2994 14.7081 4.56758
LeftShoulder1  -1.94126e-019 -3.10601e-018 -2.51263e-017
LeftArm  -8.24504 17.834 -82.1448
LeftForeArm  35.4128 -12.8101 -2.2454
LeftHand  -0.399386 -0.85885 7.54705
RightShoulder  -4.96962e-017 0 -2.36833e-017
RightArm  -14.253 -20.6911 73.3533
RightForeArm  55.0695 22.4879 2.07193
RightHand  -0.498056 1.25887 -8.83179
LeftUpLeg  -9.80487 -5.89153 2.29776
LeftLeg  2.04075 9.70472 -0.276992
LeftFoot  10.703 -0.169863 1.97474
LeftToes  -23.2729 1.48321e-006 1.01846e-007
372
root  -54.8333 34.9414 31.5933 -171.316 39.5838 179.319
RightUpLeg  -9.25633 -13.0482 0.49926
RightLeg  8.42511 -5.32091 -0.438867
RightFoot  1.05754 -0.0378845 0.0772236
RightToes  -19.0291 -0.0854732 -0.172266
Spine  -1.30373 0.174027 0.0501052
Spine1  -2.66077 0.429822 0.766106
HEad  -58.9309 14.0388 4.64435
LeftShoulder1  -1.94126e-019 -3.10601e-018 -2.51263e-017
LeftArm  -12.5089 19.1285 -81.3324
LeftForeArm  35.3547 -8.06366 -1.40664
LeftHand  -0.403265 0.0940999 8.89963
RightShoulder  -4.96962e-017 0 -2.36833e-017
RightArm  -19.1716 -21.0578 73.1146
RightForeArm  56.4685 16.4787 1.00763
RightHand  -0.464674 0.441136 -9.33174
LeftUpLeg  -10.7628 -5.5521 2.33816
LeftLeg  3.83542 9.0415 0.0236055
LeftFoot  9.76246 -0.130621 1.69096
LeftToes  -23.1011 1.48321e-006 1.01846e-007
373
root  -54.7929 34.8536 31.5786 -171.344 39.4494 179.271
RightUpLeg  -10.0529 -13.164 0.493527
RightLeg  10.2164 -5.31771 -0.606359
RightFoot  0.0739347 -0.0428033 0.163361
RightToes  -18.9489 -0.0867095 -0.171787
Spine  -1.32567 0.184456 0.138893
Spine1  -2.70728 0.455342 0.894593
HEad  -57.9789 13.2666 4.8226
LeftShoulder1  -1.94126e-019 -3.10601e-018 -2.51263e-017
LeftArm  -15.8207 21.4857 -80.2704
LeftForeArm  34.9833 -6.55692 -1.1399
LeftHand  -0.391088 0.768635 9.82377
RightShoulder  -4.96962e-017 0 -2.36833e-017
RightArm  -26.2793 -22.1481 72.3425
RightForeArm  60.2651 13.1032 1.34159
RightHand  -0.401312 -0.751741 -10.0162
LeftUpLeg  -11.774 -5.60678 2.34283
LeftLeg  5.97897 8.9519 0.356802
LeftFoot  8.66631 -0.10088 1.49283
LeftToes  -23.0436 1.48321e-006 1.01846e-007
374
root  -54.7631 34.7875 31.5682 -171.408 39.4253 179.149
RightUpLeg  -10.5975 -13.3602 0.416417
RightLeg  11.3992 -5.12683 -0.692122
RightFoot  -0.621123 -0.045629 0.220131
RightToes  -19.0446 -0.0880742 -0.171398
Spine  -1.38129 0.215975 0.202284
Spine1  -2.78975 0.503747 1.00242
HEad  -57.0716 12.519 5.09619
LeftShoulder1  -1.94126e-019 -3.10601e-018 -2.51263e-017
LeftArm  -18.3665 24.1452 -79.1851
LeftForeArm  35.2657 -6.1373 -1.06569
LeftHand  -0.38664 0.758904 9.69184
RightShoulder  -4.96962e-017 0 -2.36833e-017
RightArm  -33.6447 -23.1282 71.3466
RightForeArm  64.6233 9.91277 1.52859
RightHand  -0.37206 -1.48003 -10.9273
LeftUpLeg  -12.4658 -5.75749 2.2893
LeftLeg  7.44784 9.05999 0.592825
LeftFoot  7.94448 -0.0850896 1.38686
LeftToes  -23.1494 1.48321e-006 1.01846e-007
375
root  -54.7282 34.7389 31.5506 -171.448 39.4849 179.105
RightUpLeg  -10.998 -13.3753 0.393135
RightLeg  12.3526 -5.03966 -0.766023
RightFoot  -1.14472 -0.0471492 0.258793
RightToes  -19.0324 -0.0895358 -0.171091
Spine  -1.50272 0.255747 0.254663
Spine1  -2.98927 0.56201 1.09313
HEad  -56.0061 10.9183 5.23301
LeftShoulder1  -1.94126e-019 -3.10601e-018 -2.51263e-017
LeftArm  -17.971 27.2169 -78.1384
LeftForeArm  33.6271 -6.84211 -1.19181
LeftHand  -0.380067 0.833243 9.67422
RightShoulder  -4.96962e-017 0 -2.36833e-017
RightArm  -36.7198 -25.21 70.4498
RightForeArm  66.0677 8.70231 1.44042
RightHand  -0.325608 -1.9881 -10.9039
LeftUpLeg  -12.9527 -5.73073 2.27489
LeftLeg  8.60477 9.06402 0.776215
LeftFoot  7.34445 -0.0720169 1.28361
LeftToes  -23.16 1.48321e-006 1.01846e-007
376
root  -54.6971 34.7059 31.5316 -171.457 39.5334 179.054
RightUpLeg  -11.26 -13.432 0.367796
RightLeg  12.949 -4.95268 -0.805715
RightFoot  -1.54877 -0.0480077 0.288554
RightToes  -18.8595 -0.0910633 -0.170856
Spine  -1.60565 0.28932 0.292054
Spine1  -3.14568 0.615657 1.16599
HEad  -55.0639 9.11386 5.37464
LeftShoulder1  -1.94126e-019 -3.10601e-018 -2.51263e-017
LeftArm  -18.0956 29.8524 -77.2483
LeftForeArm  34.1252 -7.60273 -1.32674
LeftHand  -0.376062 0.261882 8.55621
RightShoulder  -4.96962e-017 0 -2.36833e-017
RightArm  -37.5763 -26.6856 69.6293
RightForeArm  66.2976 7.7886 1.31314
RightHand  -0.288572 -2.19175 -10.2161
LeftUpLeg  -13.2984 -5.74937 2.25677
LeftLeg  9.40408 9.10601 0.907246
LeftFoot  6.88799 -0.0632214 1.21202
LeftToes  -23.0161 1.48321e-006 1.01846e-007
377
root  -54.6689 34.6837 31.5139 -171.442 39.5457 179.042
RightUpLeg  -11.3935 -13.4584 0.369119
RightLeg  13.2843 -4.90316 -0.827198
RightFoot  -1.73605 -0.0474382 0.298471
RightToes  -18.9951 -0.0926253 -0.170686
Spine  -1.70643 0.271319 0.318697
Spine1  -3.30372 0.564203 1.21593
HEad  -54.3941 6.98531 5.47834
LeftShoulder1  -1.94126e-019 -3.10601e-018 -2.51263e-017
LeftArm  -18.0328 32.0159 -76.7993
LeftForeArm  33.7226 -8.2134 -1.4364
LeftHand  -0.358527 0.415375 8.3939
RightShoulder  -4.96962e-017 0 -2.36833e-017
RightArm  -36.986 -28.321 69.1158
RightForeArm  66.8631 7.7816 1.31047
RightHand  -0.305779 -1.85134 -9.84043
LeftUpLeg  -13.5403 -5.74157 2.26354
LeftLeg  9.95715 9.0924 0.994162
LeftFoot  6.60533 -0.0579813 1.16017
LeftToes  -23.1426 1.48321e-006 1.01846e-007
378
root  -54.6358 34.6658 31.4814 -171.44 39.7114 179.024
RightUpLeg  -11.4403 -13.3174 0.340536
RightLeg  13.4768 -4.88724 -0.841432
RightFoot  -1.90053 -0.0471431 0.312871
RightToes  -18.9741 -0.0941907 -0.170569
Spine  -1.78748 0.292085 0.320528
Spine1  -3.42466 0.618908 1.21693
HEad  -53.7796 5.12022 5.63439
LeftShoulder1  -1.94126e-019 -3.10601e-018 -2.51263e-017
LeftArm  -18.5508 33.6176 -76.5658
LeftForeArm  34.0275 -8.42805 -1.47326
LeftHand  -0.387133 -0.160103 8.17554
RightShoulder  -4.96962e-017 0 -2.36833e-017
RightArm  -34.8859 -29.8908 68.884
RightForeArm  65.4565 8.72333 1.44493
RightHand  -0.259691 -2.04941 -8.78032
LeftUpLeg  -13.5942 -5.67598 2.24204
LeftLeg  10.2603 9.18323 1.05296
LeftFoot  6.33735 -0.0545359 1.12901
LeftToes  -22.9754 1.48321e-006 1.01846e-007
379
root  -54.6126 34.6565 31.4642 -171.483 39.739 179.01
RightUpLeg  -11.4474 -13.3445 0.326493
RightLeg  13.6539 -4.83296 -0.847525
RightFoot  -2.05208 -0.0466352 0.3248
RightToes  -18.7917 -0.0957282 -0.170499
Spine  -1.80678 0.238162 0.310278
Spine1  -3.43731 0.52456 1.19579
HEad  -53.9181 2.55913 5.63521
LeftShoulder1  -1.94126e-019 -3.10601e-018 -2.51263e-017
LeftArm  -19.3179 34.4758 -76.6242
LeftForeArm  33.8323 -8.43992 -1.47565
LeftHand  -0.383861 -0.140708 8.13347
RightShoulder  -4.96962e-017 0 -2.36833e-017
RightArm  -33.5167 -30.7797 68.9106
RightForeArm  64.4107 9.44399 1.50816
RightHand  -0.268695 -1.8235 -8.54678
LeftUpLeg  -13.665 -5.43311 2.21131
LeftLeg  10.5723 8.9682 1.07774
LeftFoot  6.16929 -0.050451 1.08021
LeftToes  -23.0828 1.48321e-006 1.01846e-007
380
root  -54.6012 34.6577 31.464 -171.542 39.6638 178.983
RightUpLeg  -11.3742 -13.3461 0.30852
RightLeg  13.6398 -4.90672 -0.85918
RightFoot  -2.06441 -0.0456784 0.330891
RightToes  -18.7882 -0.0972067 -0.170466
Spine  -1.80743 0.1209 0.307691
Spine1  -3.4309 0.304944 1.1933
HEad  -53.6572 1.07433 5.68972
LeftShoulder1  -1.94126e-019 -3.10601e-018 -2.51263e-017
LeftArm  -20.2754 34.5288 -76.9653
LeftForeArm  33.9814 -7.9058 -1.38035
LeftHand  -0.385885 -0.167923 8.13856
RightShoulder  -4.96962e-017 0 -2.36833e-017
RightArm  -33.0175 -31.1431 69.0941
RightForeArm  63.9458 10.025 1.53325
RightHand  -0.32 -1.15793 -8.69203
LeftUpLeg  -13.6945 -5.60764 2.2117
LeftLeg  10.7256 9.0313 1.10966
LeftFoot  6.16914 -0.0506561 1.08992
LeftToes  -23.28 1.48321e-006 1.01846e-007
381
root  -54.5829 34.6658 31.4536 -171.58 40.0609 178.962
RightUpLeg  -11.3318 -13.0552 0.273159
RightLeg  13.5671 -4.82046 -0.837804
RightFoot  -2.02041 -0.0440113 0.327413
RightToes  -18.797 -0.0985949 -0.170461
Spine  -1.7846 0.151172 0.277433
Spine1  -3.39445 0.384229 1.13233
HEad  -53.5225 -0.17777 5.71348
LeftShoulder1  -1.94126e-019 -3.10601e-018 -2.51263e-017
LeftArm  -21.059 34.0488 -77.5563
LeftForeArm  34.3438 -7.42907 -1.29596
LeftHand  -0.371748 0.179697 8.3322
RightShoulder  -4.96962e-017 0 -2.36833e-017
RightArm  -32.0183 -31.103 69.4532
RightForeArm  62.3322 10.8134 1.5342
RightHand  -0.326182 -0.907762 -8.39421
LeftUpLeg  -13.4998 -5.30727 2.16222
LeftLeg  10.5854 9.14656 1.10111
LeftFoot  6.2082 -0.0523337 1.11383
LeftToes  -23.4134 1.48321e-006 1.01846e-007
382
root  -54.5837 34.6859 31.4722 -171.619 40.2213 178.933
RightUpLeg  -11.2534 -12.8953 0.262174
RightLeg  13.3538 -4.81095 -0.817688
RightFoot  -1.86648 -0.0419652 0.319106
RightToes  -18.8993 -0.0998616 -0.170476
Spine  -1.74735 0.0762932 0.249217
Spine1  -3.34809 0.252923 1.08429
HEad  -53.0637 -0.564887 5.62081
LeftShoulder1  -1.94126e-019 -3.10601e-018 -2.51263e-017
LeftArm  -21.2843 33.1201 -78.2452
LeftForeArm  34.6808 -7.12363 -1.24072
LeftHand  -0.390479 -0.00377088 8.47051
RightShoulder  -4.96962e-017 0 -2.36833e-017
RightArm  -30.72 -30.6361 69.9701
RightForeArm  60.6757 11.6947 1.49295
RightHand  -0.320007 -0.872277 -8.17245
LeftUpLeg  -13.368 -5.29042 2.15395
LeftLeg  10.3616 9.3181 1.08491
LeftFoot  6.30376 -0.0556928 1.15473
LeftToes  -23.125 1.48321e-006 1.01846e-007
